HIERARCHY
ROOT joint_0
{
	OFFSET 0.000000 0.000000 0.000000
	CHANNELS 6 Xposition Yposition Zposition Zrotation Yrotation Xrotation 
	JOINT joint_1
	{
		OFFSET 6.004005 -1.946999 100.587036
		CHANNELS 3 Zrotation Yrotation Xrotation
		JOINT joint_2
		{
			OFFSET -4.601006 -0.824997 91.925903
			CHANNELS 3 Zrotation Yrotation Xrotation
			JOINT joint_3
			{
				OFFSET -5.420998 -1.130005 91.774048
				CHANNELS 3 Zrotation Yrotation Xrotation
				JOINT joint_4
				{
					OFFSET 4.308998 -3.777992 123.473999
					CHANNELS 3 Zrotation Yrotation Xrotation
					JOINT joint_5
					{
						OFFSET 25.565002 -6.305008 79.437988
						CHANNELS 3 Zrotation Yrotation Xrotation
						End Site
						{
							OFFSET 0.000000 0.000000 0.000000
						}
					}
				}
				JOINT joint_6
				{
					OFFSET -1.750000 -28.655998 68.557983
					CHANNELS 3 Zrotation Yrotation Xrotation
					JOINT joint_7
					{
						OFFSET -17.692001 -116.544006 -17.244019
						CHANNELS 3 Zrotation Yrotation Xrotation
						JOINT joint_8
						{
							OFFSET 27.063004 -23.640991 -266.895020
							CHANNELS 3 Zrotation Yrotation Xrotation
							JOINT joint_9
							{
								OFFSET 40.722000 -15.761017 -232.488953
								CHANNELS 3 Zrotation Yrotation Xrotation
								End Site
								{
									OFFSET 0.000000 0.000000 0.000000
								}
							}
						}
					}
				}
				JOINT joint_10
				{
					OFFSET 6.593002 24.457001 69.892944
					CHANNELS 3 Zrotation Yrotation Xrotation
					JOINT joint_11
					{
						OFFSET 24.311996 114.920002 -19.872925
						CHANNELS 3 Zrotation Yrotation Xrotation
						JOINT joint_12
						{
							OFFSET 21.081001 15.319000 -268.037964
							CHANNELS 3 Zrotation Yrotation Xrotation
							JOINT joint_13
							{
								OFFSET 27.794006 -8.947001 -234.744080
								CHANNELS 3 Zrotation Yrotation Xrotation
								End Site
								{
									OFFSET 0.000000 0.000000 0.000000
								}
							}
						}
					}
				}
			}
		}
	}
	JOINT joint_14
	{
		OFFSET -6.627998 -80.520004 -98.790039
		CHANNELS 3 Zrotation Yrotation Xrotation
		JOINT joint_15
		{
			OFFSET -43.638000 -13.751999 -502.538971
			CHANNELS 3 Zrotation Yrotation Xrotation
			JOINT joint_16
			{
				OFFSET -39.532999 -9.912994 -398.071007
				CHANNELS 3 Zrotation Yrotation Xrotation
				JOINT joint_17
				{
					OFFSET 174.940004 -34.660995 -75.688002
					CHANNELS 3 Zrotation Yrotation Xrotation
					End Site
					{
						OFFSET 0.000000 0.000000 0.000000
					}
				}
			}
		}
	}
	JOINT joint_18
	{
		OFFSET 12.591003 79.842003 -98.765015
		CHANNELS 3 Zrotation Yrotation Xrotation
		JOINT joint_19
		{
			OFFSET -39.080002 -1.297001 -503.101013
			CHANNELS 3 Zrotation Yrotation Xrotation
			JOINT joint_20
			{
				OFFSET -51.570000 -0.514000 -396.815987
				CHANNELS 3 Zrotation Yrotation Xrotation
				JOINT joint_21
				{
					OFFSET 178.987999 -11.521999 -73.244003
					CHANNELS 3 Zrotation Yrotation Xrotation
					End Site
					{
						OFFSET 0.000000 0.000000 0.000000
					}
				}
			}
		}
	}
}
MOTION
Frames: 13
Frame Time: 0.016667
-1277.610474 894.990051 1093.394043 2.195969 3.232813 -0.660131 0.801611 -0.057790 -0.355202 0.817580 -0.062351 0.105334 0.806587 0.069407 -0.099000 -0.256350 -3.981815 -0.255542 0.000000 0.000000 0.000000 2.516392 3.220076 -0.304380 -0.371978 2.870445 4.821098 -1.810553 4.411561 -7.548615 0.000000 0.000000 0.000000 0.835295 0.463365 3.562208 0.036394 1.860262 -3.582041 0.909167 -0.179546 8.628678 0.000000 0.000000 0.000000 0.579988 -8.871608 -2.400707 -0.348521 9.047433 2.220660 0.187627 -1.306988 -0.178937 0.000000 0.000000 0.000000 0.219194 -10.768040 4.877067 0.526978 11.085928 0.812465 0.740760 -1.312281 0.213249 0.000000 0.000000 0.000000 
-1268.383301 893.542480 1093.906982 2.187053 4.392379 -0.718179 0.934609 -0.956906 -0.352307 0.946868 0.017636 0.175586 0.924659 -0.047890 -0.156427 -0.255851 -4.524767 -0.408864 0.000000 0.000000 0.000000 2.698398 4.084853 -0.209339 -0.530110 3.831466 4.605328 -1.712637 1.842366 -8.072163 0.000000 0.000000 0.000000 1.511642 1.216472 3.819224 0.299854 2.403082 -2.657910 0.881713 -2.852634 7.751784 0.000000 0.000000 0.000000 0.648743 -9.627145 -2.327101 -0.309798 9.093519 2.359092 0.243399 -1.343356 -0.162285 0.000000 0.000000 0.000000 0.235159 -11.632894 5.130489 0.572831 11.351693 0.613618 0.768363 -1.494524 0.212567 0.000000 0.000000 0.000000 
-1259.533447 892.682617 1094.961060 2.506523 5.154147 -0.680047 1.068153 -0.963788 -0.468572 1.080040 0.021811 0.202164 1.053481 -0.071525 -0.184504 -0.315572 -5.065477 -0.373469 0.000000 0.000000 0.000000 2.340991 4.808673 -0.608600 -0.657241 4.516638 4.215195 -1.449919 -1.615345 -8.075832 0.000000 0.000000 0.000000 1.821910 2.061032 4.770927 0.546267 3.391474 -2.401967 0.749417 -7.442188 6.152204 0.000000 0.000000 0.000000 0.590951 -10.663333 -2.268210 -0.444145 10.703424 2.308734 0.184445 -1.804394 -0.279259 0.000000 0.000000 0.000000 0.168902 -13.021745 5.137813 0.497194 13.497988 0.647431 0.765600 -1.792058 0.191122 0.000000 0.000000 0.000000 
-1250.521973 892.170288 1096.420044 3.044449 5.622305 -0.608883 1.214113 -0.265289 -0.560881 1.230230 -0.053605 0.160216 1.207734 -0.028077 -0.196163 -0.418308 -5.633043 -0.210092 0.000000 0.000000 0.000000 1.556081 5.519601 -1.219029 -0.827433 5.141496 3.559572 -1.080754 -6.198882 -7.733644 0.000000 0.000000 0.000000 1.948580 3.128311 5.889418 0.593690 4.633047 -2.121538 0.362129 -13.667464 3.825737 0.000000 0.000000 0.000000 0.440693 -11.905288 -2.175626 -0.703523 13.495261 2.119093 0.046840 -2.449416 -0.466279 0.000000 0.000000 0.000000 0.050288 -14.737039 5.005625 0.335017 16.947247 0.859525 0.773097 -1.952703 0.180889 0.000000 0.000000 0.000000 
-1240.704102 891.889160 1097.883057 3.780265 5.793544 -0.490389 1.360044 0.648376 -0.706338 1.401687 -0.141018 0.187804 1.379809 0.037344 -0.193809 -0.501428 -5.949380 -0.035167 0.000000 0.000000 0.000000 0.746913 6.170783 -1.799496 -1.086789 5.752888 2.699611 -0.802821 -10.688655 -7.428648 0.000000 0.000000 0.000000 2.095908 4.205071 6.674301 0.341303 5.667677 -1.448851 -0.195599 -19.768328 1.806100 0.000000 0.000000 0.000000 0.272493 -12.745590 -2.136975 -1.033547 16.251055 1.916824 -0.164921 -2.937507 -0.652045 0.000000 0.000000 0.000000 -0.112811 -16.782707 4.758207 0.063752 21.614676 1.165527 0.785769 -2.009146 0.177183 0.000000 0.000000 0.000000 
-1229.890869 891.704590 1099.166992 4.722919 5.609200 -0.435489 1.505740 1.479800 -0.742822 1.615571 -0.180359 0.277635 1.589547 0.148183 -0.171453 -0.519766 -5.755080 0.089363 0.000000 0.000000 0.000000 0.243560 6.772423 -2.328464 -1.447817 6.385752 1.789895 -0.725050 -14.398345 -7.495911 0.000000 0.000000 0.000000 2.245498 5.061252 7.127588 -0.080998 6.279566 -0.442112 -0.753711 -24.840086 0.634282 0.000000 0.000000 0.000000 0.150545 -12.801782 -2.053646 -1.414921 18.324581 1.767546 -0.472012 -3.153383 -0.820662 0.000000 0.000000 0.000000 -0.304895 -19.338447 4.520555 -0.393440 27.884633 1.536236 0.773484 -1.723988 0.181458 0.000000 0.000000 0.000000 
-1218.319336 891.650574 1100.423950 5.725712 4.991049 -0.634402 1.638079 2.575425 -0.308396 1.951064 -0.287642 0.224425 1.944630 0.327631 -0.132315 -0.506726 -5.156213 0.239745 0.000000 0.000000 0.000000 -0.106447 7.356855 -2.855256 -1.927373 7.050826 0.768397 -0.801834 -17.800091 -7.813269 0.000000 0.000000 0.000000 2.305868 5.785600 7.410355 -0.609777 6.620924 0.804857 -1.328514 -29.577253 -0.049557 0.000000 0.000000 0.000000 0.070747 -12.225705 -1.677063 -1.820441 20.137990 1.598705 -0.848892 -3.101694 -0.961633 0.000000 0.000000 0.000000 -0.425268 -22.198046 4.424999 -1.047796 35.419353 1.994078 0.782605 -0.346390 0.255377 0.000000 0.000000 0.000000 
-1205.009033 892.061157 1101.296021 6.578781 4.336089 -1.003997 1.728357 3.508549 0.435527 2.388169 -0.447521 0.039421 2.436181 0.476268 -0.089592 -0.500689 -4.494216 0.433119 0.000000 0.000000 0.000000 -0.418973 7.893468 -3.310409 -2.429182 7.671517 -0.205156 -0.980685 -20.469341 -8.240723 0.000000 0.000000 0.000000 2.543073 6.499694 7.473296 -1.216737 6.819827 2.074496 -1.887425 -33.441491 -0.242681 0.000000 0.000000 0.000000 0.024877 -11.211080 -1.132091 -2.136182 21.291791 1.472331 -1.184710 -2.920350 -1.057690 0.000000 0.000000 0.000000 -0.349088 -24.834955 4.366412 -1.719948 42.321866 2.418602 0.913784 1.692220 0.407716 0.000000 0.000000 0.000000 
-1188.949341 893.223999 1101.485962 7.383020 4.053912 -1.300251 1.837073 3.622006 1.072558 2.769021 -0.502113 -0.128696 2.874003 0.514598 -0.031694 -0.516497 -3.946489 0.663370 0.000000 0.000000 0.000000 -0.751318 8.374721 -3.749193 -2.820387 8.174720 -0.948633 -1.179767 -21.957535 -8.663435 0.000000 0.000000 0.000000 3.239148 7.273729 7.362501 -1.915481 6.990036 3.145988 -2.443415 -35.972405 0.029458 0.000000 0.000000 0.000000 -0.057342 -9.873211 -0.693220 -2.360616 21.295110 1.446056 -1.482751 -2.825864 -1.155013 0.000000 0.000000 0.000000 -0.056494 -27.252275 4.054563 -2.288443 48.032235 2.786817 1.279398 3.388981 0.617069 0.000000 0.000000 0.000000 
-1170.517334 895.015747 1101.134033 8.239200 3.985123 -1.525851 2.034917 3.098391 1.587892 3.060499 -0.468995 -0.263092 3.213140 0.475491 0.058497 -0.546794 -3.386493 0.936313 0.000000 0.000000 0.000000 -1.042060 8.834839 -4.229626 -3.101806 8.594684 -1.498205 -1.379780 -22.461139 -9.114909 0.000000 0.000000 0.000000 4.291544 8.037500 7.237519 -2.677009 7.145694 3.997742 -3.018009 -37.467107 0.674411 0.000000 0.000000 0.000000 -0.245694 -8.126249 -0.312247 -2.506712 20.288671 1.458283 -1.762066 -2.745475 -1.247235 0.000000 0.000000 0.000000 0.416130 -29.641665 3.457032 -2.821264 53.302128 3.155719 1.913987 4.883438 0.902703 0.000000 0.000000 0.000000 
-1151.283569 897.125549 1100.475952 9.053783 3.993527 -1.746222 2.315270 2.495762 1.983019 3.285810 -0.429496 -0.369795 3.470303 0.406148 0.141795 -0.593987 -2.997966 1.202774 0.000000 0.000000 0.000000 -1.304150 9.213196 -4.539996 -3.344946 8.931885 -1.921399 -1.583128 -22.748561 -9.622038 0.000000 0.000000 0.000000 5.216657 8.750063 7.199093 -3.394620 7.407033 4.548770 -3.513620 -38.450846 1.685302 0.000000 0.000000 0.000000 -0.482792 -6.442469 0.029255 -2.533534 19.304430 1.513385 -1.895401 -2.542795 -1.256420 0.000000 0.000000 0.000000 0.831723 -31.766246 2.823610 -3.314287 57.354327 3.441630 2.548693 5.984837 1.168528 0.000000 0.000000 0.000000 
-1132.311035 899.333252 1099.646973 9.814656 4.050411 -2.026036 2.587443 2.094466 2.288650 3.476161 -0.398757 -0.441680 3.672832 0.344688 0.175932 -0.642961 -2.944731 1.384201 0.000000 0.000000 0.000000 -1.548706 9.427765 -4.526348 -3.615986 9.156100 -2.246714 -1.814657 -23.297078 -10.248393 0.000000 0.000000 0.000000 5.631192 9.451076 7.217454 -4.026330 7.896693 4.685437 -3.835139 -39.275273 3.302833 0.000000 0.000000 0.000000 -0.633015 -5.200153 0.324554 -2.450913 19.059652 1.702542 -1.821967 -2.194742 -1.154794 0.000000 0.000000 0.000000 0.969766 -33.601186 2.393863 -3.786184 59.791886 3.550139 2.796730 6.292750 1.265060 0.000000 0.000000 0.000000 
-1113.009766 901.753845 1098.558960 10.624898 4.235660 -2.304891 2.859846 1.626150 2.442647 3.596932 -0.311270 -0.443784 3.765196 0.270106 0.173730 -0.682961 -3.151372 1.476631 0.000000 0.000000 0.000000 -1.768543 9.494037 -4.300946 -3.879810 9.257417 -2.426115 -2.064021 -23.832775 -10.978330 0.000000 0.000000 0.000000 5.724198 10.162073 7.233140 -4.626151 8.582580 4.426615 -4.011808 -39.766196 5.566388 0.000000 0.000000 0.000000 -0.705708 -4.234561 0.536043 -2.310111 19.143284 2.039985 -1.614758 -1.742731 -0.980970 0.000000 0.000000 0.000000 0.883150 -35.331421 2.047404 -4.228416 61.080410 3.523905 2.693110 5.758088 1.200615 0.000000 0.000000 0.000000 
